<?xml version="1.0" encoding="UTF-8" standalone="no"?>
<svg
   xmlns:dc="http://purl.org/dc/elements/1.1/"
   xmlns:cc="http://creativecommons.org/ns#"
   xmlns:rdf="http://www.w3.org/1999/02/22-rdf-syntax-ns#"
   xmlns:svg="http://www.w3.org/2000/svg"
   xmlns="http://www.w3.org/2000/svg"
   xmlns:sodipodi="http://sodipodi.sourceforge.net/DTD/sodipodi-0.dtd"
   xmlns:inkscape="http://www.inkscape.org/namespaces/inkscape"
   width="22"
   height="14"
   viewBox="0 0 22 14"
   version="1.1"
   id="svg6"
   sodipodi:docname="group.svg"
   inkscape:version="0.92.4 (5da689c313, 2019-01-14)">
  <metadata
     id="metadata12">
    <rdf:RDF>
      <cc:Work
         rdf:about="">
        <dc:format>image/svg+xml</dc:format>
        <dc:type
           rdf:resource="http://purl.org/dc/dcmitype/StillImage" />
      </cc:Work>
    </rdf:RDF>
  </metadata>
  <defs
     id="defs10" />
  <sodipodi:namedview
     pagecolor="#ffffff"
     bordercolor="#666666"
     borderopacity="1"
     objecttolerance="10"
     gridtolerance="10"
     guidetolerance="10"
     inkscape:pageopacity="0"
     inkscape:pageshadow="2"
     inkscape:window-width="640"
     inkscape:window-height="480"
     id="namedview8"
     showgrid="false"
     inkscape:zoom="9.8333333"
     inkscape:cx="11"
     inkscape:cy="7"
     inkscape:window-x="193"
     inkscape:window-y="182"
     inkscape:window-maximized="0"
     inkscape:current-layer="svg6" />
  <path
     d="M -1,-5 H 23 V 19 H -1 Z"
     id="path2"
     inkscape:connector-curvature="0"
     style="fill:none" />
  <path
     d="m 15,6 c 1.66,0 2.99,-1.34 2.99,-3 0,-1.66 -1.33,-3 -2.99,-3 -1.66,0 -3,1.34 -3,3 0,1.66 1.34,3 3,3 z M 7,6 C 8.66,6 9.99,4.66 9.99,3 9.99,1.34 8.66,0 7,0 5.34,0 4,1.34 4,3 4,4.66 5.34,6 7,6 Z M 7,8 C 4.67,8 0,9.17 0,11.5 V 14 H 14 V 11.5 C 14,9.17 9.33,8 7,8 Z m 8,0 C 14.71,8 14.38,8.02 14.03,8.05 15.19,8.89 16,10.02 16,11.5 V 14 h 6 V 11.5 C 22,9.17 17.33,8 15,8 Z"
     id="path4"
     inkscape:connector-curvature="0" />
</svg>
