<?xml version="1.0" encoding="UTF-8" standalone="no"?>
<svg
   xmlns:dc="http://purl.org/dc/elements/1.1/"
   xmlns:cc="http://creativecommons.org/ns#"
   xmlns:rdf="http://www.w3.org/1999/02/22-rdf-syntax-ns#"
   xmlns:svg="http://www.w3.org/2000/svg"
   xmlns="http://www.w3.org/2000/svg"
   xmlns:sodipodi="http://sodipodi.sourceforge.net/DTD/sodipodi-0.dtd"
   xmlns:inkscape="http://www.inkscape.org/namespaces/inkscape"
   width="15.555191"
   height="16"
   viewBox="0 0 15.555191 16"
   version="1.1"
   id="svg6"
   sodipodi:docname="settings.svg"
   inkscape:version="0.92.4 (5da689c313, 2019-01-14)">
  <metadata
     id="metadata12">
    <rdf:RDF>
      <cc:Work
         rdf:about="">
        <dc:format>image/svg+xml</dc:format>
        <dc:type
           rdf:resource="http://purl.org/dc/dcmitype/StillImage" />
      </cc:Work>
    </rdf:RDF>
  </metadata>
  <defs
     id="defs10" />
  <sodipodi:namedview
     pagecolor="#ffffff"
     bordercolor="#666666"
     borderopacity="1"
     objecttolerance="10"
     gridtolerance="10"
     guidetolerance="10"
     inkscape:pageopacity="0"
     inkscape:pageshadow="2"
     inkscape:window-width="640"
     inkscape:window-height="480"
     id="namedview8"
     showgrid="false"
     inkscape:zoom="11.8"
     inkscape:cx="7.7775953"
     inkscape:cy="8"
     inkscape:window-x="0"
     inkscape:window-y="0"
     inkscape:window-maximized="0"
     inkscape:current-layer="svg6" />
  <path
     d="M -2.2224047,-2 H 17.777595 V 18 H -2.2224047 Z"
     id="path2"
     inkscape:connector-curvature="0"
     style="fill:none" />
  <path
     d="m 13.727595,8.78 c 0.03,-0.25 0.05,-0.51 0.05,-0.78 0,-0.27 -0.02,-0.53 -0.06,-0.78 l 1.69,-1.32 c 0.15,-0.12 0.19,-0.34 0.1,-0.51 l -1.6,-2.77 c -0.1,-0.18 -0.31,-0.24 -0.49,-0.18 l -1.99,0.8 c -0.42,-0.32 -0.86,-0.58 -1.35,-0.78 L 9.7775953,0.34 c -0.03,-0.2 -0.2,-0.34 -0.4,-0.34 h -3.2 c -0.2,0 -0.36,0.14 -0.39,0.34 l -0.3,2.12 c -0.49,0.2 -0.94,0.47 -1.35,0.78 l -1.99,-0.8 c -0.18,-0.07 -0.39,0 -0.49,0.18 L 0.05759532,5.39 c -0.1,0.18 -0.06,0.39 0.1,0.51 L 1.8475953,7.22 c -0.04,0.25 -0.07,0.52 -0.07,0.78 0,0.26 0.02,0.53 0.06,0.78 L 0.14759532,10.1 c -0.15,0.12 -0.19,0.34 -0.1,0.51 l 1.59999998,2.77 c 0.1,0.18 0.31,0.24 0.49,0.18 l 1.99,-0.8 c 0.42,0.32 0.86,0.58 1.35,0.78 l 0.3,2.12 c 0.04,0.2 0.2,0.34 0.4,0.34 h 3.2 c 0.2,0 0.37,-0.14 0.39,-0.34 l 0.2999997,-2.12 c 0.49,-0.2 0.94,-0.47 1.35,-0.78 l 1.99,0.8 c 0.18,0.07 0.39,0 0.49,-0.18 l 1.6,-2.77 c 0.1,-0.18 0.06,-0.39 -0.1,-0.51 z M 7.7775953,11 c -1.65,0 -3,-1.35 -3,-3 0,-1.65 1.35,-3 3,-3 1.65,0 2.9999997,1.35 2.9999997,3 0,1.65 -1.3499997,3 -2.9999997,3 z"
     id="path4"
     inkscape:connector-curvature="0" />
</svg>
