<?xml version="1.0" encoding="utf-8"?><svg xmlns="http://www.w3.org/2000/svg" xmlns:xlink="http://www.w3.org/1999/xlink"><symbol viewBox="0 0 12 7.41" id="arrow-down" xmlns="http://www.w3.org/2000/svg"><path d="M1.41 0L6 4.58 10.59 0 12 1.41l-6 6-6-6z"/><path d="M-6-8.59h24v24H-6z" fill="none"/></symbol><symbol viewBox="0 0 10 5" id="arrow-drop-down" xmlns="http://www.w3.org/2000/svg"><path d="M0 0l5 5 5-5z"/><path d="M-7-10h24v24H-7z" fill="none"/></symbol><symbol viewBox="0 0 12 7.41" id="arrow-up" xmlns="http://www.w3.org/2000/svg"><path d="M1.41 7.41L6 2.83l4.59 4.58L12 6 6 0 0 6z"/><path d="M-6-8h24v24H-6z" fill="none"/></symbol><symbol class="dsvg-inline--fa dfa-behance dfa-w-18" viewBox="0 0 576 361.1" id="behance" xmlns="http://www.w3.org/2000/svg"><path d="M232 161.8c31.8-15.2 48.4-38.2 48.4-74C280.4 17.2 227.8 0 167.1 0H0v354.4h171.8c64.4 0 124.9-30.9 124.9-102.9 0-44.5-21.1-77.4-64.7-89.7zM77.9 60.5H151c28.1 0 53.4 7.9 53.4 40.5 0 30.1-19.7 42.2-47.5 42.2h-79zm83.3 233.7H77.9v-97.6h84.9c34.3 0 56 14.3 56 50.6 0 35.8-25.9 47-57.6 47zM519.7 53.5H376V18.6h143.7zM576 229.8c0-75.9-44.4-139.2-124.9-139.2-78.2 0-131.3 58.8-131.3 135.8 0 79.9 50.3 134.7 131.3 134.7 61.3 0 101-27.6 120.1-86.3H509c-6.7 21.9-34.3 33.5-55.7 33.5-41.3 0-63-24.2-63-65.3h185.1c.3-4.2.6-8.7.6-13.2zm-185.6-31.2c2.3-33.7 24.7-54.8 58.5-54.8 35.4 0 53.2 20.8 56.2 54.8z"/></symbol><symbol viewBox="0 0 20 18" id="business" xmlns="http://www.w3.org/2000/svg"><path d="M-2-3h24v24H-2z" fill="none"/><path d="M10 4V0H0v18h20V4zM4 16H2v-2h2zm0-4H2v-2h2zm0-4H2V6h2zm0-4H2V2h2zm4 12H6v-2h2zm0-4H6v-2h2zm0-4H6V6h2zm0-4H6V2h2zm10 12h-8v-2h2v-2h-2v-2h2V8h-2V6h8zm-2-8h-2v2h2zm0 4h-2v2h2z"/></symbol><symbol viewBox="0 0 433.5 433.5" id="download-button" xmlns="http://www.w3.org/2000/svg"><path d="M395.25 153h-102V0h-153v153h-102l178.5 178.5L395.25 153zm-357 229.5v51h357v-51h-357z"/></symbol><symbol class="gsvg-inline--fa gfa-dribbble gfa-w-16" viewBox="0 0 496 496" id="dribbble" xmlns="http://www.w3.org/2000/svg"><path d="M248 0C111.252 0 0 111.252 0 248s111.252 248 248 248 248-111.252 248-248S384.748 0 248 0zm163.97 114.366c29.503 36.046 47.369 81.957 47.835 131.955-6.984-1.477-77.018-15.682-147.502-6.818-5.752-14.041-11.181-26.393-18.617-41.614 78.321-31.977 113.818-77.482 118.284-83.523zM388.421 89.87c-3.81 5.427-35.697 48.286-111.021 76.519-34.712-63.776-73.185-116.168-79.04-124.008 67.176-16.193 137.966 1.27 190.061 47.489zm-230.48-33.25c5.585 7.659 43.438 60.116 78.537 122.509-99.087 26.313-186.36 25.934-195.834 25.809C54.38 139.205 98.678 84.573 157.941 56.62zM36.17 248.323c0-2.166.043-4.322.108-6.473 9.268.19 111.92 1.513 217.706-30.146 6.064 11.868 11.857 23.915 17.174 35.949-76.599 21.575-146.194 83.527-180.531 142.306C56.794 352.405 36.17 302.73 36.17 248.323zm81.807 167.113c22.127-45.233 82.178-103.622 167.579-132.756 29.74 77.283 42.039 142.053 45.189 160.638-68.112 29.013-150.015 21.053-212.768-27.882zm248.38 8.489c-2.171-12.886-13.446-74.897-41.152-151.033 66.38-10.626 124.7 6.768 131.947 9.055-9.442 58.941-43.273 109.844-90.795 141.978z"/></symbol><symbol viewBox="0 0 20 16" id="email" xmlns="http://www.w3.org/2000/svg"><path d="M18 0H2C.9 0 .01.9.01 2L0 14c0 1.1.9 2 2 2h16c1.1 0 2-.9 2-2V2c0-1.1-.9-2-2-2zm0 4l-8 5-8-5V2l8 5 8-5z"/><path d="M-2-4h24v24H-2z" fill="none"/></symbol><symbol viewBox="0 0 773.364 875.19" id="engineer" xmlns="http://www.w3.org/2000/svg"><path d="M249.654 384.982c6.1 11.4 13.3 22.6 21.8 32.3 38.9 44.6 87.3 66.2 146.5 53 60.6-13.5 96.5-55.4 118.8-111 2.6-6.6 2.5-14.4 9.9-19 43.8-27.7 41.6-72.5 42.4-116 .1-5.3-2.8-9.1-8.3-8.6-13.6 1.3-12.9-7-13.8-16.8-5.7-61.6-31.3-112.8-81.4-150.4-11.5-8.6-25.9-13.5-30.2-29.8-1.2-4.6-6.5-9.2-14.6-10.1-3.1 33.9-6.3 67.6-9.2 101.3-.9 10.8-2 21.9-16.3 20.7-14-1.1-11.6-13-11.4-22.4.8-30 .9-60.1 3.2-90.1 1.9-24.2-14.8-16.2-26.6-17.8-16.6-2.2-12.9 8.9-12.6 18.3 1 31.8 1.8 63.5 2.6 95.1.2 6.3 0 12.9-7.2 15.8-5.7 2.4-11.2 1.6-15.5-3.2-4-4.5-4.8-10.1-5.3-15.8-2.3-29.3-4.7-58.7-7.3-88-.4-4.8 1.5-12.2-4-13.5-6-1.4-9.1 5.4-12.5 9.9-4.7 6-4.9 14.5-12.9 19.2-59.9 34.9-89.6 89.1-98.3 156.3-1.4 10.7 2.1 23.8-16.3 21.7-3.4-.4-5.4 3.8-5.6 7.4-1.7 36.1-2.4 74.4 24.2 100.7 18.9 18.5 28.4 39.5 39.9 60.8zm188.4-158.3c6.5-49.7 12.8-99.4 19.8-153.7 47.3 36.3 71.7 80.2 72.9 136.5.2 7.4-3.9 9.7-9.6 11.6-23.8 7.7-48.4 10.9-73.1 14.1-6.7.9-11.2-.1-10-8.5zm-194.1-25.6c4.7-48 24.1-88.7 62.1-119.6 5.1-4.2 11-10.8 12.8 3.2 5.3 44.9 10.9 89.8 17.2 134.5 1.9 13.8-1.7 18.4-15.8 15.5-20.5-4-41.2-6.1-61.4-12-12.2-3.4-17.6-9-14.9-21.6zm-13.5 77.1c3.9-11.2 17.9-6.8 25-3.8 76.4 33.6 154.7 25.1 233.4 12.7 8.4-1.3 16.5-4 23.3-9.5 2.1-1.8 4.8-3.7 7.4-3.9 9.5-1 21.1-6.2 26.5 5.8 4.4 9.7-6.1 22.9-19.3 24.6-15.8 1.9-17.4 14.7-20.7 25.6-6.9 22.4-16.3 43.5-31.3 61.6-24.3 29.3-51.5 42.9-96.1 45.2-30-3.1-59-19.6-81.4-48.2-13.8-17.7-23.4-37.6-28.5-59.2-3.4-14.2-8.6-23.2-24.7-25.5-13.4-2-17-15.7-13.6-25.4zm-19.7 374.3c1.2.2 3.7-1.6 3.9-2.7 2.5-12.3 1.8-24.8.6-37.1-.8-8.6-8.6-5.2-13.7-6-6.9-1.1-5.2-6.5-5.3-10.6-.2-15.8-.1-31.8-.1-47.6 0-16.5-.1-32.9 0-49.3.1-6.8-1.6-9.4-8.8-6.1-34.9 15.3-70.5 29.3-78.3 73.7-1.7 9.3-6.8 17.9-10.3 26.9-33.7 87.5-66.1 175.6-96.7 264.3-4.8 13.9-1.3 16.3 11.7 15.8 23.2-.8 46.5-.8 69.7 0 11.3.4 16.9-3.4 21.4-13.9 26.3-61.3 53.5-122.3 80.7-183.2 5.2-11.1 6.6-26.7 25.2-24.2zm560.5 205.4c-30.6-88.7-62.9-176.8-96.7-264.3-3.5-9-8.7-17.6-10.3-26.9-7.8-44.4-43.5-58.5-78.3-73.7-7.3-3.2-8.9-.7-8.8 6.1.2 16.5.1 32.8.1 49.3h-.1c0 15.8.1 31.8-.1 47.6 0 4.1 1.7 9.5-5.3 10.6-5 .9-12.8-2.6-13.7 6-1.1 12.3-1.9 24.9.6 37.1.3 1.1 2.7 2.9 3.9 2.7 18.6-2.5 20 13.1 25 24.2 27.2 60.9 54.3 121.8 80.7 183.2 4.6 10.6 10.2 14.4 21.4 13.9 23.2-.8 46.5-.8 69.7 0 13.3.5 16.8-1.8 11.9-15.8zm-237.1-28.7c2.6-16.7-4-20.6-20-20.5-74.7.8-149.4.3-224 .5-15.8.1-36.2-6.8-46 2.7-10.5 10.2-2.1 31.1-3.4 47.2-1 10.9 2 14.5 13.8 14.3 44.1-.8 88.3-.4 132.4-.4v-.1c17 0 34-.1 50.9 0 17 .1 34 .9 50.9.3 14.5-.4 32.8 6.5 42.4-3.2 8.7-8.8.9-27 3-40.8zm-260.6-121.1c-.6-19.3-17.2-35.2-36.5-34.9-19.9.3-36.8 17.6-36.2 37 .6 19.5 18.4 36 38.2 35.2 18.3-.7 35.1-18.9 34.5-37.3zm264.2-34.9c-20-.2-35.8 15.2-35.9 35.2-.2 20.8 15.9 37.4 36.2 37.1 18.6-.2 35.5-17.5 35.5-36.4 0-19.4-16.4-35.7-35.8-35.9zm-9-158.5c0-9.3-.3-18.6-.4-27.8 0-4.3.5-9.5-4.5-12.3-8.8-5-31.2 1.1-37.2 10.4-22.1 34.2-44.3 68.4-65.9 102.8-5.3 8.4-11 13.4-21.7 11.9-6.7-1-13.7-1.1-20.3 0-13.1 2-20.1-3.9-26.9-14.9-20.8-34.2-43.4-67.6-64.6-101.6-2.5-4-5.3-6.5-8.3-8.1-8.2-4.2-18-1.1-26.6-.3-4.7.4-6.1 3-6.3 6.2l-5.3 147.7c-.3 3.4-.4 6.7-.5 10.2 0 .8 0 1.4.1 2.1l-.1 1.9h.1c.8 8.1 4.7 10.5 14.3 10.4 44.2-.5 88.3-.2 132.5-.3 44.2 0 88.3-.3 132.5.2 10.6.1 14.3-2.3 14.4-14.1 0-2.1 0-4.3-.1-6.4h.1z"/></symbol><symbol class="jsvg-inline--fa jfa-facebook-square jfa-w-14" viewBox="0 0 448 448" id="facebook" xmlns="http://www.w3.org/2000/svg"><path d="M448 48v352c0 26.5-21.5 48-48 48h-85.3V270.8h60.6l8.7-67.6h-69.3V160c0-19.6 5.4-32.9 33.5-32.9H384V66.7c-6.2-.8-27.4-2.7-52.2-2.7-51.6 0-87 31.5-87 89.4v49.9H184v67.6h60.9V448H48c-26.5 0-48-21.5-48-48V48C0 21.5 21.5 0 48 0h352c26.5 0 48 21.5 48 48z"/></symbol><symbol viewBox="0 0 1000 1000" id="graduate" xmlns="http://www.w3.org/2000/svg"><path d="M234 199.4c-.5 9.6-.4 19.2-.1 28.8.2 5-1.1 8.3-5.3 11.7-13.6 10.7-15.5 30.1-3.4 41.4 6.3 5.9 6.9 11.3 5.2 18.6-.8 3.6-1.1 7.3-1.6 10.9-3.6 25-7.1 50-11 74.9-.9 5.6.7 7.1 6.4 7 16-.4 31.9-.3 47.9-.1 4.7.1 5.6-1 4.9-5.8-4.6-30.1-8.7-60.2-13.1-90.2-.8-5.3-.8-9.3 4.1-13.5 11.8-10.2 13.3-29.3 1.7-39.3-8.5-7.4-9-15.2-8.6-24.5.1-3.7.3-7.4 0-11.1-.3-4.7 1.1-5.4 5.4-3.7 17.2 7.1 34.4 14.2 51.8 20.8 4.8 1.9 5.9 4.4 5.9 9.2-.3 19.4 0 38.8-.2 58.2-.1 5.3.8 7.2 6.3 5 11.5-4.5 23.4-7.2 35.5-9.2 35.6-5.9 69.9-3.3 101.8 15.4 12.4 7.3 22.7 17 32.1 28.1 1.3-1.3 2.3-2.4 3.3-3.4 19.9-23.2 45.2-36.3 75.2-40.9 31.3-4.9 61.6-.1 91.2 10.2 4.8 1.7 6.3 1.1 6.3-4.4l-.2-59c-.1-5 1.5-7.2 6.2-9 34.4-13 68.6-26.3 102.9-39.5 9.5-3.7 19-7.5 29.7-11.7-4.1-2.4-7-4.1-9.9-5.8-98.9-55.3-197.8-110.6-296.7-166-5.5-3.1-9.5-3.5-15.3-.2C409.9 48.7 327.2 94.8 244.6 141l-59.3 33.3c15 5.6 28.2 10.7 41.6 15.3 5.2 1.7 7.4 4 7.1 9.8zm107.4-19c52.1-14.7 104.9-24.9 151.7-24.4 65.6-.1 121.6 11.1 176.8 27.8 4.1 1.2 5.5 3.1 5.2 7.2-.3 4.4-.4 8.8 0 13.2.4 5.2-1.6 5.5-5.9 4.1-26.2-8-52.8-14.7-79.8-19.9-59.5-11.3-118.9-11.4-178.4-.1-27 5.1-53.6 11.6-79.8 19.9-5.5 1.8-6.5.4-6.5-4.9-.1-18-.3-18.1 16.7-22.9zm331.1 165.3c-.3-22.7-1.2-22.7-23.8-28.6-1.4-.4-2.9-.7-4.2-1.2-5.2-2-5.7.6-5 4.8 1.8 10.9 3.1 21.9 2.8 33 .1 11.6-1 23.1-2.9 34.4-6.9 40.8-23.3 76.8-53.5 105.8-47.5 45.7-115.6 48.4-165.5 5.8-36.9-31.5-55.1-73-61.3-120.4-2.6-19.8-2.3-39.7 1.3-59.4.6-3.4.5-5.5-4.3-4.2-8 2.2-16 4.5-23.8 7.6-2.5 1-3.8 2.4-4.1 5.3-5.4 60.6 7.8 116.2 44.9 165 27.7 36.4 63.6 60.2 110 65.6 47.3 5.5 87.9-10 121.8-42.1 49.2-46.3 68.6-105.1 67.6-171.4zm-70 6.7c-.1-15.2-11.7-26.3-27.4-26.2-14.7.1-26.5 12-26.4 26.7 0 15 12 26.7 27.3 26.6 15.3-.1 26.5-11.6 26.5-27.1zm-151.7.9c.1-15.7-10.9-27.1-26.3-27.2-15.8-.1-26.9 10.9-27 26.4 0 15.6 11.2 26.9 26.6 26.9 15.1.1 26.5-11.1 26.7-26.1zm10.4 102.6c-4.6 0-5.9 1.1-3.4 5.4 9.4 16.4 23.5 25.5 42.5 25.4 18.7-.1 32.4-9.4 41.7-25.5 2.6-4.5.8-5.3-3.5-5.3-12.8.1-25.5.1-38.3.1-13 0-25.9.1-39-.1zM835 882.6c-5.2-39.6-7.6-79.4-15.9-118.7-5.8-27.3-12.9-53.8-22.6-79.7-11-29.4-28.9-51.6-58.9-64.9-43.7-19.4-91.5-29.9-131.7-60-.8 3.4-1.9 5.3-1.6 7.1 3.4 27.2 6.6 54.4 10.8 81.5 1.7 11.1 4.7 22.8 1 33-13.9 37.6-29.5 74.5-44.3 111.7-10.2 25.7-21.1 51.2-30.2 77.3-10.9 31.5-23.5 62.3-40.7 93.1-14.4-39-28.5-78.1-43.1-116.9-14.9-39.4-30.7-78.5-45.4-117.9-9.7-26-20.2-51.7-17-81 2.5-24.1 1-48.7 1-73.1 0-4.9 2-10.6-3.2-14.6-37.1 26-78.4 41.9-121.2 55.2-20.9 6.5-41.5 18.1-52.7 37.2-19.6 33.3-31.7 69.9-38.5 108.4-2.8 16-3.7 32.3-7.5 48-7 29.1-6.8 58.8-8.8 88.2-1 14-.1 32.5 14.4 39.5 27.3 13.2 56.3 23.3 85.9 30.5 25.9 6.3 52.2 10.6 78.3 15.7 52 10.3 104.5 18.2 157.2 18 65.5-.2 129.9-12.2 194.1-25.3 41.4-8.4 81.3-19.8 120.1-36 7.9-3.3 14-7.5 16.1-15.4 3.3-13.5 6.3-26.8 4.4-40.9zM510 683.8c-3.7-1.8-7.3-3.4-11.7-.3-8 5.7-16.7 10.3-24.8 15.7-6.8 4.5-9.6 10.8-6.7 19 1.6 4.5 3.3 9 3.8 13.7 5.6 50.8 17.7 100.6 24.1 151.3 1.7 13.2 4 27.2 9.7 40.9 2.6-9.8 6.7-19.5 7.8-29.4 3.9-37.3 12.8-73.8 17.8-110.9 2-15 2.4-30.6 6.6-45.1 9-31 8.6-33.8-19.1-49.5-2.8-1.5-4.9-4.1-7.5-5.4zm36.9-74.7c-3.5-4.5-9.9-1.7-14.7.3-17.4 7-35.4 4.9-53 2.1-6.3-1-12.1-5.8-21.3-1.7 14 20.7 28.3 39.3 39.6 59.7 6.5 11.6 9.8 6 13.5.4 10.7-16 20.4-32.6 31.1-48.7 2.7-4 7.9-8.1 4.8-12.1z"/></symbol><symbol viewBox="0 0 22 14" id="group" xmlns="http://www.w3.org/2000/svg"><path d="M-1-5h24v24H-1z" fill="none"/><path d="M15 6c1.66 0 2.99-1.34 2.99-3S16.66 0 15 0c-1.66 0-3 1.34-3 3s1.34 3 3 3zM7 6c1.66 0 2.99-1.34 2.99-3S8.66 0 7 0C5.34 0 4 1.34 4 3s1.34 3 3 3zm0 2c-2.33 0-7 1.17-7 3.5V14h14v-2.5C14 9.17 9.33 8 7 8zm8 0c-.29 0-.62.02-.97.05 1.16.84 1.97 1.97 1.97 3.45V14h6v-2.5C22 9.17 17.33 8 15 8z"/></symbol><symbol class="msvg-inline--fa mfa-linkedin-in mfa-w-14" viewBox="0 0 448.1 448" id="linkedin" xmlns="http://www.w3.org/2000/svg"><path d="M100.3 448H7.4V148.9h92.9V448zM53.8 108.1C24.1 108.1 0 83.5 0 53.8 0 24.1 24.1 0 53.8 0c29.7 0 53.8 24.1 53.8 53.8 0 29.7-24.1 54.3-53.8 54.3zM448 448h-92.7V302.4c0-34.7-.7-79.2-48.3-79.2-48.3 0-55.7 37.7-55.7 76.7V448h-92.8V148.9h89.1v40.8h1.3c12.4-23.5 42.7-48.3 87.9-48.3 94 0 111.3 61.9 111.3 142.3V448z"/></symbol><symbol viewBox="0 0 56 56" id="menu" xmlns="http://www.w3.org/2000/svg"><g fill="#FFF"><path d="M28 0C12.561 0 0 12.561 0 28s12.561 28 28 28 28-12.561 28-28S43.439 0 28 0zm0 54C13.663 54 2 42.336 2 28S13.663 2 28 2s26 11.664 26 26-11.663 26-26 26z"/><path d="M40 16H16a1 1 0 1 0 0 2h24a1 1 0 1 0 0-2zm0 11H16a1 1 0 1 0 0 2h24a1 1 0 1 0 0-2zm0 11H16a1 1 0 1 0 0 2h24a1 1 0 1 0 0-2z"/></g></symbol><symbol viewBox="0 0 46.02 46.02" id="move-to-next" xmlns="http://www.w3.org/2000/svg"><path d="M14.757 46.02a5.688 5.688 0 0 1-3.929-1.569 5.705 5.705 0 0 1-.204-8.063L23.382 22.97 10.637 9.645a5.703 5.703 0 0 1 8.242-7.884l16.505 17.253a5.707 5.707 0 0 1 .013 7.872L18.893 44.247a5.699 5.699 0 0 1-4.136 1.773z" fill="#02ab97"/></symbol><symbol viewBox="0 0 46.02 46.02" id="move-to-prev" xmlns="http://www.w3.org/2000/svg"><path d="M31.263 0c1.412 0 2.825.52 3.93 1.569a5.705 5.705 0 0 1 .203 8.063L22.638 23.05l12.745 13.325a5.703 5.703 0 0 1-8.242 7.884L10.636 27.006a5.707 5.707 0 0 1-.013-7.872L27.127 1.773A5.699 5.699 0 0 1 31.263 0z" fill="#02ab97"/></symbol><symbol viewBox="0 0 16 16" id="person" xmlns="http://www.w3.org/2000/svg"><path d="M8 8c2.21 0 4-1.79 4-4s-1.79-4-4-4-4 1.79-4 4 1.79 4 4 4zm0 2c-2.67 0-8 1.34-8 4v2h16v-2c0-2.66-5.33-4-8-4z"/><path d="M-4-4h24v24H-4z" fill="none"/></symbol><symbol viewBox="0 0 15.56 15.56" id="rss-feed" xmlns="http://www.w3.org/2000/svg"><path d="M-4-4.44h24v24H-4z" fill="none"/><circle cx="2.18" cy="13.38" r="2.18"/><path d="M0 0v2.83c7.03 0 12.73 5.7 12.73 12.73h2.83C15.56 6.97 8.59 0 0 0zm0 5.66v2.83c3.9 0 7.07 3.17 7.07 7.07H9.9c0-5.47-4.43-9.9-9.9-9.9z"/></symbol><symbol viewBox="0 0 15.555 16" id="settings" xmlns="http://www.w3.org/2000/svg"><path d="M-2.222-2h20v20h-20z" fill="none"/><path d="M13.728 8.78c.03-.25.05-.51.05-.78s-.02-.53-.06-.78l1.69-1.32c.15-.12.19-.34.1-.51l-1.6-2.77c-.1-.18-.31-.24-.49-.18l-1.99.8c-.42-.32-.86-.58-1.35-.78l-.3-2.12a.4.4 0 0 0-.4-.34h-3.2c-.2 0-.36.14-.39.34l-.3 2.12c-.49.2-.94.47-1.35.78l-1.99-.8c-.18-.07-.39 0-.49.18l-1.6 2.77c-.1.18-.06.39.1.51l1.69 1.32c-.04.25-.07.52-.07.78s.02.53.06.78L.148 10.1c-.15.12-.19.34-.1.51l1.6 2.77c.1.18.31.24.49.18l1.99-.8c.42.32.86.58 1.35.78l.3 2.12c.04.2.2.34.4.34h3.2c.2 0 .37-.14.39-.34l.3-2.12c.49-.2.94-.47 1.35-.78l1.99.8c.18.07.39 0 .49-.18l1.6-2.77c.1-.18.06-.39-.1-.51zM7.778 11c-1.65 0-3-1.35-3-3s1.35-3 3-3 3 1.35 3 3-1.35 3-3 3z"/></symbol><symbol viewBox="0 0 0 0" id="sprite" xmlns="http://www.w3.org/2000/svg"/><symbol viewBox="0 0 20 12" id="trending" xmlns="http://www.w3.org/2000/svg"><path d="M14 0l2.29 2.29-4.88 4.88-4-4L0 10.59 1.41 12l6-6 4 4 6.3-6.29L20 6V0z"/><path d="M-2-6h24v24H-2z" fill="none"/></symbol><symbol class="vsvg-inline--fa vfa-twitter vfa-w-16" viewBox="0 0 511.998 415.837" id="twitter" xmlns="http://www.w3.org/2000/svg"><path d="M459.37 103.634c.325 4.548.325 9.097.325 13.645 0 138.72-105.583 298.558-298.558 298.558-59.452 0-114.68-17.219-161.137-47.106 8.447.974 16.568 1.299 25.34 1.299 49.055 0 94.213-16.568 130.274-44.832-46.132-.975-84.792-31.188-98.112-72.772 6.498.974 12.995 1.624 19.818 1.624 9.421 0 18.843-1.3 27.614-3.573-48.081-9.747-84.143-51.98-84.143-102.985v-1.299c13.969 7.797 30.214 12.67 47.431 13.319-28.264-18.843-46.781-51.005-46.781-87.391 0-19.492 5.197-37.36 14.294-52.954C87.39 82.842 165.035 124.425 252.1 128.974c-1.624-7.797-2.599-15.918-2.599-24.04C249.501 47.106 296.283 0 354.435 0c30.213 0 57.502 12.67 76.67 33.137 23.715-4.548 46.456-13.32 66.599-25.34-7.798 24.366-24.366 44.833-46.132 57.827 21.117-2.273 41.584-8.122 60.426-16.243-14.292 20.791-32.161 39.308-52.628 54.253z"/></symbol><symbol viewBox="0 0 840.987 875.06" id="worker" xmlns="http://www.w3.org/2000/svg"><path d="M839.097 793.108c-28.8-74-57.1-148.2-85.2-222.5-2.9-7.7-7.4-12.8-14.2-16.5-40.2-22.2-82.9-38.4-126.8-50.9-29-8.2-39.2-2.4-55.5 23.1-17.6 27.5-36.8 53.9-52.3 82.4-14.9 27.6-33.1 42.3-66.2 36.8-12.3-2-20-4.7-26.6-15.7-23.7-38.3-48.7-75.8-72.8-113.9-6.3-10-13.3-14.4-25.7-14.4-38.4-.1-71.1 18.4-105.4 31.2-19.7 7.4-39.7 15.2-57.8 32 20.7 6.7 33.3 19.9 36 40.3 2 15.8 13.2 26.7 18.6 40.6 2.3 5.9 6.6 6 12.3 4.4 21.4-6.4 41-.4 59.2 10.3 90.5 53.5 180.8 107.5 271.3 161.1 11.6 6.9 21.5 15.4 26.2 28.4 2.7 7.7 7.4 8.3 14.4 7.5 81.6-9.1 162.3-22.4 241.1-46.2 10.7-3.4 13.7-6.7 9.4-18zm-573-514.2c16.8-1.1 36.4-5.1 50.1 1.7 40 19.7 82.1 21 124.5 22 42 1 84.5 1.2 124.4-13.1 17.9-6.4 34.7-11.3 53.7-11 41.9.6 45.2-3.9 39.2-46.3l-.2-1.8c-.8-6.3-3.8-11.4-10.5-10.8-11.1 1.1-11.3-5.4-11.9-13.7-4.6-58-27.9-107.2-71.1-146.7-15.7-14.4-38.7-20.8-46.4-44-1.1-3.2-5.6-7.7-10.7-5.3-4.1 1.9-2.4 6.6-2.7 10.1-2.7 30.5-5.4 61.2-7.8 91.7-.8 10.8-2.8 21.8-15.5 21.6-15.1-.2-14.1-13-13.7-23.8 1.1-31.3 1.3-62.7 3.7-93.9 1.4-19.6-11.3-14.6-21.7-15.4-11.3-.8-18.7 0-17.9 15.4 2 33.8 1.9 67.6 2.7 101.4.2 8.2-2.1 15.6-11.7 16.2-9.7.6-15-5.3-15.8-14.7l-3.9-43.1c-2-22.2-4.1-44.5-6.2-67.7-14.1 8.4-14.7 8.2-19.3 19.3-2.3 5.7-5.6 9.1-10.6 12.3-62.4 38.3-93.5 95.5-99.1 167.4-.6 8-1.1 13.4-11 12.8-9-.6-11.8 5.3-11.7 13.3.1 8.1.6 16.4-.2 24.4-1.4 15.8 4.3 22.8 21.3 21.7zm237.5-46.9c6.5-51.4 12.9-102.7 19.8-157.7 49.3 36.3 71.2 81.6 75.3 137 .6 8.9-3.9 12.1-11.1 14.3-24.6 7.5-49.7 11.6-75.3 14.1-6.6.5-9.6-.6-8.7-7.7zm-123.4-154.3c6.4 51 12.8 101.5 19.3 152 1.1 8.2-1.3 10.8-10.2 9.7-24.2-2.9-48.3-6-71.6-13.5-5.6-1.8-11.9-2.5-12.6-11.1-3.4-42.7 30.4-117.6 75.1-137.1zm153.1 777.4c-2.5-1.9-5.3-3.3-8-5-83.8-51.4-167.2-103.4-252.7-151.9-40.3-22.8-46.9-20.5-65.3 20.8-5.8 12.9-5.7 19 10 23.4 35.5 9.9 70.4 21.8 105.6 33 6.4 2 15.8 3.6 13.9 11.9-2.5 10.7-11.5 6.1-18.6 3.9-37.6-11.6-75.1-23.7-113.1-34-17.4-4.7-24.8-16-27.3-31.7-1.5-9.1-.9-18.7-.3-28.1 1.1-18-1.3-35.5-11.9-50.1-8.1-11.1-17.2-20.4-15-36.1 1.2-8.4-7.7-10.3-14.1-12.6l-83-29.1c-34.2-12.1-41.1-8.5-50.6 27.2-1.9 7.2-1.9 14.8-2.7 22.2-1.4 12.3 4.7 18.3 16.5 20.6 31.9 6.2 63.7 13 95.6 19.1 10.5 2 21.4 7.4 30-6 4.6-7.2 8.6 1.1 11 4.3 9.6 12.7 11.1 27.6 9.5 42.9-2.3 23.2.5 45.2 17.2 63.2 5.6 6 3.7 10.7.8 16.6-8.8 18.6-16.9 37.7-25.9 56.3-6.2 12.8-2.6 21.6 9.2 28.2 13.6 7.5 28.2 9.9 43.4 9.9h154.3v.9h120.3c15.1 0 30.1.4 45.2-.1 4.6-.1 10.9.4 12.9-5.7 2-6.4-2.4-10.5-6.9-14zm-524.7-253.9c5.9-30.4 11.5-35.8 30.6-30.5-17.2 2.4-22 15.3-30.6 30.5zm275.9-298.3c-11.6 1.7-30.3-9.4-31.2 14.6-1 26.3 6.5 50.5 28.2 66.3 11 8 16.5 17.2 21.1 29 27 69.4 84.6 112 149.7 111.9 14.4-.5 28.6-1.8 42.4-6.6 54.4-18.9 87.2-58.6 107.6-110.4 2.9-7.4 4.2-14.7 12.6-19.5 21.9-12.5 31.2-33.4 34-57.5 2.9-24.3-.3-27.5-24.4-28.4-11.6-.4-17.6.4-15.1 15.7 2.7 16.5 2.6 34.6-22.4 37.2-9.2 1-13.1 10.3-15.2 19.5-3.8 16.5-10.2 32-18.6 46.9-33.1 58.1-95 80.3-150.1 52.3-39.5-20-60.5-55-71.4-96.5-2.5-9.4-4.6-20.7-15.1-21.7-24.5-2.5-24.1-19.1-24.1-36.6.4-6.9 7.7-18.4-8-16.2zm-158.7 405.3c.3-8.1-2.9-11.6-10.6-11.8-6.2-.2-13.2-5.2-16.9 5.3-11.2 31.8-23.1 63.3-35 94.9-1.9 5.3-3.3 9.5 3.9 11.6 14.9 4.5 29.8 9.2 40.7 12.6 16.1 1.4 37.3-39.6 30.9-52.9-9-19-13.8-38.7-13-59.7z"/></symbol></svg>